<svg id="Capa_1" enable-background="new 0 0 512 512" height="64" viewBox="0 0 512 512" width="64" xmlns="http://www.w3.org/2000/svg"><g><path d="m214.28 498.762c4.098 0 8.029-1.628 10.927-4.526l278.144-278.144c11.398-11.398 11.398-29.879 0-41.277l-152.928-152.928c-11.398-11.398-29.878-11.398-41.277 0l-300.597 300.598c-11.398 11.398-11.398 29.878 0 41.277l130.474 130.474c2.898 2.898 6.828 4.526 10.927 4.526z" fill="#d3e1f5"/><path d="m275.208 386.418-78.91 78.91c-2.898 2.898-6.828 4.526-10.927 4.526h-64.331c-4.098 0-8.029-1.628-10.927-4.526l28.909 28.909c2.898 2.898 6.829 4.526 10.927 4.526h64.331c4.098 0 8.029-1.628 10.927-4.526l78.91-78.91z" fill="#c0d6f2"/><path d="m505.059 176.523-156.344-156.344c-10.455-10.455-28.935-8.925-41.277 3.417l-228.75 228.75 194.205 194.204 228.75-228.75c12.341-12.342 13.871-30.822 3.416-41.277z" fill="#0473ce"/><path d="m187.955 245.061 134.545-134.545c4.023-4.023 10.546-4.023 14.569 0l77.653 77.653c4.023 4.023 4.023 10.546 0 14.569l-134.545 134.545c-4.023 4.023-10.546 4.023-14.569 0l-77.653-77.653c-4.023-4.023-4.023-10.546 0-14.569z" fill="#0055a3"/><path d="m505.059 176.523-28.908-28.909c10.455 10.455 8.925 28.935-3.417 41.277l-228.75 228.75 28.909 28.909 228.75-228.75c12.341-12.342 13.871-30.822 3.416-41.277z" fill="#0067c5"/></g></svg>