<svg id="Layer_3" enable-background="new 0 0 64 64" height="64" viewBox="0 0 64 64" width="64" xmlns="http://www.w3.org/2000/svg"><g><path d="m21.479 26.257h24.042v8.485h-24.042z" fill="#c7e2fc" transform="matrix(.707 -.707 .707 .707 -11.755 32.621)"/><path d="m25.231 32.769c1.069.148 2.159.231 3.269.231 4.187 0 8.114-1.1 11.519-3.019l4.981-4.981-6-6z" fill="#ebf7fe"/><path d="m60.939 9.061-15.939 15.939-6-6 15.939-15.939c.679-.679 1.601-1.061 2.561-1.061.96 0 1.882.382 2.561 1.061l.879.879c.678.678 1.06 1.6 1.06 2.56 0 .96-.382 1.882-1.061 2.561z" fill="#c1c8d1"/><path d="m41.379 16.257h4.243v8.485h-4.243z" fill="#243242" transform="matrix(.707 -.707 .707 .707 -1.755 36.764)"/><path d="m55 15-2-2h-8l-3 3 6 6z" fill="#a8b0bc"/><path d="m58 12-6-6 2.939-2.939c.679-.679 1.601-1.061 2.561-1.061.96 0 1.882.382 2.561 1.061l.879.879c.678.678 1.06 1.6 1.06 2.56 0 .96-.382 1.882-1.061 2.561z" fill="#243242"/><path d="m6.893 42.257h21.213v8.485h-21.213z" fill="#243242" transform="matrix(.707 -.707 .707 .707 -27.755 25.994)"/><path d="m7 51-3 7 2 2 7-3" fill="#758190"/><path d="m54 4h-8.101c-1.857 0-3.637.737-4.95 2.05l-6.707 6.707c-2.716 2.717-4.242 6.401-4.242 10.243l14.414-14.414c.375-.375.884-.586 1.414-.586h4.172" fill="#8892a0"/><path d="m29.61 32.972c1.09-.051 2.158-.18 3.204-.374l9.892-9.892-1.415-1.415z" fill="#7c7b7b"/><path d="m61.646 3.23-.878-.878c-.873-.872-2.035-1.352-3.27-1.352-1.234 0-2.395.48-3.268 1.353l-.646.646h-7.686c-2.105 0-4.167.854-5.657 2.343l-6.707 6.707c-2.925 2.926-4.536 6.814-4.534 10.95 0 .404.243.769.617.924.123.051.253.076.382.076.261 0 .517-.103.708-.293l14.414-14.414c.186-.187.443-.293.706-.293h1.757l-9.292 9.292-32 32.001c-.092.093-.159.201-.208.314l-.004-.002-3 7c-.161.376-.077.812.212 1.102l.292.292-2.292 2.292 1.415 1.415 2.293-2.291.292.292c.191.191.447.293.708.293.133 0 .267-.027.394-.081l6.979-2.991c.003-.001.005-.002.007-.003l.014-.006-.001-.003c.114-.048.222-.116.315-.208l32-32.001 15.938-15.938c.874-.874 1.354-2.036 1.352-3.269 0-1.235-.48-2.395-1.352-3.269zm-7.939 9.061c-.188-.188-.442-.292-.708-.292h-5.586l4.586-4.586 4.585 4.585-1.584 1.586zm-.122 2.708-5.585 5.586-4.586-4.586 2-2h7.172zm-7.758-8c-.801 0-1.554.312-2.121.878l-12.443 12.443c.518-2.581 1.782-4.953 3.687-6.856l6.707-6.707c1.117-1.117 2.663-1.758 4.242-1.758h5.686l-2 2zm-17.828 33.585-1.585-1.585 15.586-15.585 1.585 1.585zm-3-3-1.585-1.585 15.586-15.585 1.585 1.585zm-18.771 21.228-1.042-1.042 2.151-5.019 3.91 3.91zm6.772-3.227-4.586-4.586 13.585-13.585 4.586 4.586zm32-32.001-4.586-4.586 1.585-1.584 4.586 4.586zm15.23-15.231-2.23 2.231-4.585-4.585 2.231-2.231c.988-.99 2.719-.99 3.707 0l.878.878c.495.494.768 1.153.768 1.855 0 .698-.272 1.356-.769 1.852z"/></g></svg>